<mxfile host="app.diagrams.net" modified="2023-09-20T11:49:21.799Z" agent="Mozilla/5.0 (Macintosh; Intel Mac OS X 10_15_7) AppleWebKit/537.36 (KHTML, like Gecko) Chrome/117.0.0.0 Safari/537.36" etag="7FqCkLLSVR6NEqZl_ZCC" version="21.7.5" type="github">
  <diagram name="第 1 页" id="dxcAa4W-SWLmKXKb0Hz-">
    <mxGraphModel dx="1993" dy="1683" grid="1" gridSize="10" guides="1" tooltips="1" connect="1" arrows="1" fold="1" page="1" pageScale="1" pageWidth="827" pageHeight="1169" math="0" shadow="0">
      <root>
        <mxCell id="0" />
        <mxCell id="1" parent="0" />
        <mxCell id="29SdABc7wkxVLyjIRv6X-94" value="互联网或云" style="ellipse;shape=cloud;whiteSpace=wrap;html=1;fillColor=#dae8fc;strokeColor=#6c8ebf;" vertex="1" parent="1">
          <mxGeometry x="257" y="-1120" width="290" height="133" as="geometry" />
        </mxCell>
        <mxCell id="29SdABc7wkxVLyjIRv6X-90" value="阿里云" style="ellipse;shape=cloud;whiteSpace=wrap;html=1;verticalAlign=middle;fillColor=#dae8fc;strokeColor=#6c8ebf;" vertex="1" parent="1">
          <mxGeometry x="285" y="-994" width="220" height="144" as="geometry" />
        </mxCell>
        <mxCell id="29SdABc7wkxVLyjIRv6X-89" value="阿里云" style="ellipse;shape=cloud;whiteSpace=wrap;html=1;verticalAlign=middle;fillColor=#dae8fc;strokeColor=#6c8ebf;" vertex="1" parent="1">
          <mxGeometry x="483" y="-999" width="216" height="148" as="geometry" />
        </mxCell>
        <mxCell id="29SdABc7wkxVLyjIRv6X-83" value="阿里云" style="ellipse;shape=cloud;whiteSpace=wrap;html=1;verticalAlign=middle;fillColor=#dae8fc;strokeColor=#6c8ebf;" vertex="1" parent="1">
          <mxGeometry x="110" y="-990" width="200" height="138" as="geometry" />
        </mxCell>
        <mxCell id="29SdABc7wkxVLyjIRv6X-35" value="&lt;font color=&quot;#ef0b0b&quot; style=&quot;font-size: 11px;&quot;&gt;SD-WAN设备&lt;/font&gt;" style="rounded=0;whiteSpace=wrap;html=1;verticalAlign=bottom;fillColor=#fff2cc;strokeColor=#d6b656;fontSize=11;" vertex="1" parent="1">
          <mxGeometry x="122" y="-780" width="560" height="98" as="geometry" />
        </mxCell>
        <mxCell id="29SdABc7wkxVLyjIRv6X-17" value="&lt;font style=&quot;font-size: 14px;&quot;&gt;公有云&lt;/font&gt;" style="rounded=1;whiteSpace=wrap;html=1;verticalAlign=bottom;fillColor=#d5e8d4;strokeColor=#82b366;" vertex="1" parent="1">
          <mxGeometry x="-570" y="-1036" width="400" height="230" as="geometry" />
        </mxCell>
        <mxCell id="29SdABc7wkxVLyjIRv6X-15" style="edgeStyle=orthogonalEdgeStyle;rounded=0;orthogonalLoop=1;jettySize=auto;html=1;exitX=0.5;exitY=0;exitDx=0;exitDy=0;entryX=0;entryY=0.5;entryDx=0;entryDy=0;" edge="1" parent="1" source="29SdABc7wkxVLyjIRv6X-1" target="29SdABc7wkxVLyjIRv6X-13">
          <mxGeometry relative="1" as="geometry" />
        </mxCell>
        <mxCell id="29SdABc7wkxVLyjIRv6X-1" value="门店1&lt;br&gt;SD-WAN" style="rounded=0;whiteSpace=wrap;html=1;fillColor=#fff2cc;strokeColor=#d6b656;" vertex="1" parent="1">
          <mxGeometry x="-690" y="-789" width="120" height="60" as="geometry" />
        </mxCell>
        <mxCell id="29SdABc7wkxVLyjIRv6X-8" style="edgeStyle=orthogonalEdgeStyle;rounded=0;orthogonalLoop=1;jettySize=auto;html=1;exitX=0.5;exitY=0;exitDx=0;exitDy=0;entryX=0.25;entryY=1;entryDx=0;entryDy=0;" edge="1" parent="1" source="29SdABc7wkxVLyjIRv6X-2" target="29SdABc7wkxVLyjIRv6X-1">
          <mxGeometry relative="1" as="geometry" />
        </mxCell>
        <mxCell id="29SdABc7wkxVLyjIRv6X-2" value="PC1" style="rounded=0;whiteSpace=wrap;html=1;" vertex="1" parent="1">
          <mxGeometry x="-770" y="-679" width="80" height="40" as="geometry" />
        </mxCell>
        <mxCell id="29SdABc7wkxVLyjIRv6X-7" style="edgeStyle=orthogonalEdgeStyle;rounded=0;orthogonalLoop=1;jettySize=auto;html=1;exitX=0.5;exitY=0;exitDx=0;exitDy=0;entryX=0.45;entryY=1;entryDx=0;entryDy=0;entryPerimeter=0;" edge="1" parent="1" source="29SdABc7wkxVLyjIRv6X-3" target="29SdABc7wkxVLyjIRv6X-1">
          <mxGeometry relative="1" as="geometry" />
        </mxCell>
        <mxCell id="29SdABc7wkxVLyjIRv6X-3" value="PC2" style="rounded=0;whiteSpace=wrap;html=1;" vertex="1" parent="1">
          <mxGeometry x="-676" y="-679" width="80" height="40" as="geometry" />
        </mxCell>
        <mxCell id="29SdABc7wkxVLyjIRv6X-9" style="edgeStyle=orthogonalEdgeStyle;rounded=0;orthogonalLoop=1;jettySize=auto;html=1;exitX=0.5;exitY=0;exitDx=0;exitDy=0;entryX=0.667;entryY=1.033;entryDx=0;entryDy=0;entryPerimeter=0;" edge="1" parent="1" source="29SdABc7wkxVLyjIRv6X-4" target="29SdABc7wkxVLyjIRv6X-1">
          <mxGeometry relative="1" as="geometry" />
        </mxCell>
        <mxCell id="29SdABc7wkxVLyjIRv6X-4" value="PC3" style="rounded=0;whiteSpace=wrap;html=1;" vertex="1" parent="1">
          <mxGeometry x="-565" y="-679" width="80" height="40" as="geometry" />
        </mxCell>
        <mxCell id="29SdABc7wkxVLyjIRv6X-29" style="edgeStyle=orthogonalEdgeStyle;rounded=0;orthogonalLoop=1;jettySize=auto;html=1;exitX=0.5;exitY=0;exitDx=0;exitDy=0;" edge="1" parent="1" source="29SdABc7wkxVLyjIRv6X-13" target="29SdABc7wkxVLyjIRv6X-14">
          <mxGeometry relative="1" as="geometry" />
        </mxCell>
        <mxCell id="29SdABc7wkxVLyjIRv6X-13" value="vSD-WAN" style="rounded=0;whiteSpace=wrap;html=1;fillColor=#fff2cc;strokeColor=#d6b656;" vertex="1" parent="1">
          <mxGeometry x="-430" y="-906" width="120" height="60" as="geometry" />
        </mxCell>
        <mxCell id="29SdABc7wkxVLyjIRv6X-31" style="edgeStyle=orthogonalEdgeStyle;rounded=0;orthogonalLoop=1;jettySize=auto;html=1;exitX=0.5;exitY=0;exitDx=0;exitDy=0;entryX=0.496;entryY=0.975;entryDx=0;entryDy=0;entryPerimeter=0;" edge="1" parent="1" source="29SdABc7wkxVLyjIRv6X-14" target="29SdABc7wkxVLyjIRv6X-30">
          <mxGeometry relative="1" as="geometry" />
        </mxCell>
        <mxCell id="29SdABc7wkxVLyjIRv6X-14" value="vAF" style="rounded=0;whiteSpace=wrap;html=1;fillColor=#f8cecc;strokeColor=#b85450;" vertex="1" parent="1">
          <mxGeometry x="-430" y="-1016" width="120" height="60" as="geometry" />
        </mxCell>
        <mxCell id="29SdABc7wkxVLyjIRv6X-28" style="edgeStyle=orthogonalEdgeStyle;rounded=0;orthogonalLoop=1;jettySize=auto;html=1;exitX=0.5;exitY=0;exitDx=0;exitDy=0;entryX=1;entryY=0.5;entryDx=0;entryDy=0;" edge="1" parent="1" source="29SdABc7wkxVLyjIRv6X-19" target="29SdABc7wkxVLyjIRv6X-13">
          <mxGeometry relative="1" as="geometry" />
        </mxCell>
        <mxCell id="29SdABc7wkxVLyjIRv6X-19" value="门店X&lt;br&gt;SD-WAN" style="rounded=0;whiteSpace=wrap;html=1;fillColor=#fff2cc;strokeColor=#d6b656;" vertex="1" parent="1">
          <mxGeometry x="-160" y="-789" width="120" height="60" as="geometry" />
        </mxCell>
        <mxCell id="29SdABc7wkxVLyjIRv6X-20" style="edgeStyle=orthogonalEdgeStyle;rounded=0;orthogonalLoop=1;jettySize=auto;html=1;exitX=0.5;exitY=0;exitDx=0;exitDy=0;entryX=0.25;entryY=1;entryDx=0;entryDy=0;" edge="1" parent="1" source="29SdABc7wkxVLyjIRv6X-21" target="29SdABc7wkxVLyjIRv6X-19">
          <mxGeometry relative="1" as="geometry" />
        </mxCell>
        <mxCell id="29SdABc7wkxVLyjIRv6X-21" value="PC1" style="rounded=0;whiteSpace=wrap;html=1;" vertex="1" parent="1">
          <mxGeometry x="-240" y="-679" width="80" height="40" as="geometry" />
        </mxCell>
        <mxCell id="29SdABc7wkxVLyjIRv6X-22" style="edgeStyle=orthogonalEdgeStyle;rounded=0;orthogonalLoop=1;jettySize=auto;html=1;exitX=0.5;exitY=0;exitDx=0;exitDy=0;entryX=0.45;entryY=1;entryDx=0;entryDy=0;entryPerimeter=0;" edge="1" parent="1" source="29SdABc7wkxVLyjIRv6X-23" target="29SdABc7wkxVLyjIRv6X-19">
          <mxGeometry relative="1" as="geometry" />
        </mxCell>
        <mxCell id="29SdABc7wkxVLyjIRv6X-23" value="PC2" style="rounded=0;whiteSpace=wrap;html=1;" vertex="1" parent="1">
          <mxGeometry x="-146" y="-679" width="80" height="40" as="geometry" />
        </mxCell>
        <mxCell id="29SdABc7wkxVLyjIRv6X-24" style="edgeStyle=orthogonalEdgeStyle;rounded=0;orthogonalLoop=1;jettySize=auto;html=1;exitX=0.5;exitY=0;exitDx=0;exitDy=0;entryX=0.667;entryY=1.033;entryDx=0;entryDy=0;entryPerimeter=0;" edge="1" parent="1" source="29SdABc7wkxVLyjIRv6X-25" target="29SdABc7wkxVLyjIRv6X-19">
          <mxGeometry relative="1" as="geometry" />
        </mxCell>
        <mxCell id="29SdABc7wkxVLyjIRv6X-25" value="PC3" style="rounded=0;whiteSpace=wrap;html=1;" vertex="1" parent="1">
          <mxGeometry x="-35" y="-679" width="80" height="40" as="geometry" />
        </mxCell>
        <mxCell id="29SdABc7wkxVLyjIRv6X-26" value="配置了白名单策略" style="text;html=1;align=center;verticalAlign=middle;resizable=0;points=[];autosize=1;strokeColor=none;fillColor=none;" vertex="1" parent="1">
          <mxGeometry x="-280" y="-774" width="120" height="30" as="geometry" />
        </mxCell>
        <mxCell id="29SdABc7wkxVLyjIRv6X-30" value="互联网" style="ellipse;shape=cloud;whiteSpace=wrap;html=1;" vertex="1" parent="1">
          <mxGeometry x="-430" y="-1140" width="120" height="80" as="geometry" />
        </mxCell>
        <mxCell id="29SdABc7wkxVLyjIRv6X-32" value="配置了策略" style="text;html=1;align=center;verticalAlign=middle;resizable=0;points=[];autosize=1;strokeColor=none;fillColor=none;fontColor=#FF3D0D;" vertex="1" parent="1">
          <mxGeometry x="-301" y="-1001" width="80" height="30" as="geometry" />
        </mxCell>
        <mxCell id="29SdABc7wkxVLyjIRv6X-33" value="PC1的IP对外发起了攻击，&lt;br&gt;被华为云检测到并提示" style="text;html=1;align=center;verticalAlign=middle;resizable=0;points=[];autosize=1;" vertex="1" parent="1">
          <mxGeometry x="-770" y="-629" width="170" height="40" as="geometry" />
        </mxCell>
        <mxCell id="29SdABc7wkxVLyjIRv6X-34" value="配置了白名单策略" style="text;html=1;align=center;verticalAlign=middle;resizable=0;points=[];autosize=1;strokeColor=none;fillColor=none;fontColor=#FF3D0D;" vertex="1" parent="1">
          <mxGeometry x="-810" y="-774" width="120" height="30" as="geometry" />
        </mxCell>
        <mxCell id="29SdABc7wkxVLyjIRv6X-40" value="总头W1&lt;br style=&quot;border-color: var(--border-color);&quot;&gt;vSD-WAN" style="rounded=0;whiteSpace=wrap;html=1;fillColor=#fff2cc;strokeColor=#d6b656;" vertex="1" parent="1">
          <mxGeometry x="162" y="-911.25" width="130" height="45" as="geometry" />
        </mxCell>
        <mxCell id="29SdABc7wkxVLyjIRv6X-55" value="" style="shape=flexArrow;endArrow=classic;html=1;rounded=0;exitX=0.192;exitY=0.033;exitDx=0;exitDy=0;exitPerimeter=0;fillColor=#d5e8d4;strokeColor=#82b366;" edge="1" parent="1" source="29SdABc7wkxVLyjIRv6X-59">
          <mxGeometry width="50" height="50" relative="1" as="geometry">
            <mxPoint x="190" y="-713.26" as="sourcePoint" />
            <mxPoint x="187" y="-864.25" as="targetPoint" />
          </mxGeometry>
        </mxCell>
        <mxCell id="29SdABc7wkxVLyjIRv6X-73" value="电信线路" style="edgeLabel;html=1;align=center;verticalAlign=middle;resizable=0;points=[];" vertex="1" connectable="0" parent="29SdABc7wkxVLyjIRv6X-55">
          <mxGeometry x="0.2717" y="-3" relative="1" as="geometry">
            <mxPoint y="5" as="offset" />
          </mxGeometry>
        </mxCell>
        <mxCell id="29SdABc7wkxVLyjIRv6X-57" value="" style="shape=flexArrow;endArrow=classic;html=1;rounded=0;exitX=0.5;exitY=0;exitDx=0;exitDy=0;fillColor=#d5e8d4;strokeColor=#82b366;" edge="1" parent="1" source="29SdABc7wkxVLyjIRv6X-59">
          <mxGeometry width="50" height="50" relative="1" as="geometry">
            <mxPoint x="228" y="-715.25" as="sourcePoint" />
            <mxPoint x="228" y="-864.25" as="targetPoint" />
          </mxGeometry>
        </mxCell>
        <mxCell id="29SdABc7wkxVLyjIRv6X-74" value="移动" style="edgeLabel;html=1;align=center;verticalAlign=middle;resizable=0;points=[];" vertex="1" connectable="0" parent="29SdABc7wkxVLyjIRv6X-57">
          <mxGeometry x="0.2659" y="-2" relative="1" as="geometry">
            <mxPoint y="24" as="offset" />
          </mxGeometry>
        </mxCell>
        <mxCell id="29SdABc7wkxVLyjIRv6X-59" value="VPN1&lt;br&gt;线路" style="rounded=0;whiteSpace=wrap;html=1;" vertex="1" parent="1">
          <mxGeometry x="162" y="-753.75" width="130" height="45" as="geometry" />
        </mxCell>
        <mxCell id="29SdABc7wkxVLyjIRv6X-60" value="总头W2&lt;br style=&quot;border-color: var(--border-color);&quot;&gt;vSD-WAN" style="rounded=0;whiteSpace=wrap;html=1;fillColor=#fff2cc;strokeColor=#d6b656;" vertex="1" parent="1">
          <mxGeometry x="342" y="-911.25" width="130" height="45" as="geometry" />
        </mxCell>
        <mxCell id="29SdABc7wkxVLyjIRv6X-61" value="总头W3&lt;br&gt;vSD-WAN" style="rounded=0;whiteSpace=wrap;html=1;fillColor=#fff2cc;strokeColor=#d6b656;" vertex="1" parent="1">
          <mxGeometry x="512" y="-911.25" width="130" height="45" as="geometry" />
        </mxCell>
        <mxCell id="29SdABc7wkxVLyjIRv6X-62" value="VPN2&lt;br&gt;线路" style="rounded=0;whiteSpace=wrap;html=1;" vertex="1" parent="1">
          <mxGeometry x="342" y="-753.75" width="130" height="45" as="geometry" />
        </mxCell>
        <mxCell id="29SdABc7wkxVLyjIRv6X-63" value="VPN3&lt;br&gt;线路" style="rounded=0;whiteSpace=wrap;html=1;" vertex="1" parent="1">
          <mxGeometry x="512" y="-753.75" width="130" height="45" as="geometry" />
        </mxCell>
        <mxCell id="29SdABc7wkxVLyjIRv6X-64" value="" style="shape=flexArrow;endArrow=classic;html=1;rounded=0;fillColor=#d5e8d4;strokeColor=#82b366;" edge="1" parent="1">
          <mxGeometry width="50" height="50" relative="1" as="geometry">
            <mxPoint x="360" y="-754" as="sourcePoint" />
            <mxPoint x="359.5" y="-864.25" as="targetPoint" />
          </mxGeometry>
        </mxCell>
        <mxCell id="29SdABc7wkxVLyjIRv6X-77" value="电信线路" style="edgeLabel;html=1;align=center;verticalAlign=middle;resizable=0;points=[];" vertex="1" connectable="0" parent="29SdABc7wkxVLyjIRv6X-64">
          <mxGeometry x="0.3152" y="-7" relative="1" as="geometry">
            <mxPoint x="-10" y="9" as="offset" />
          </mxGeometry>
        </mxCell>
        <mxCell id="29SdABc7wkxVLyjIRv6X-65" value="" style="shape=flexArrow;endArrow=classic;html=1;rounded=0;fillColor=#d5e8d4;strokeColor=#82b366;" edge="1" parent="1">
          <mxGeometry width="50" height="50" relative="1" as="geometry">
            <mxPoint x="402" y="-754" as="sourcePoint" />
            <mxPoint x="400.5" y="-864.25" as="targetPoint" />
          </mxGeometry>
        </mxCell>
        <mxCell id="29SdABc7wkxVLyjIRv6X-78" value="移动" style="edgeLabel;html=1;align=center;verticalAlign=middle;resizable=0;points=[];" vertex="1" connectable="0" parent="29SdABc7wkxVLyjIRv6X-65">
          <mxGeometry x="0.2568" y="1" relative="1" as="geometry">
            <mxPoint x="1" y="21" as="offset" />
          </mxGeometry>
        </mxCell>
        <mxCell id="29SdABc7wkxVLyjIRv6X-67" value="" style="shape=flexArrow;endArrow=classic;html=1;rounded=0;fillColor=#d5e8d4;strokeColor=#82b366;" edge="1" parent="1">
          <mxGeometry width="50" height="50" relative="1" as="geometry">
            <mxPoint x="535" y="-754" as="sourcePoint" />
            <mxPoint x="534.5" y="-864.25" as="targetPoint" />
          </mxGeometry>
        </mxCell>
        <mxCell id="29SdABc7wkxVLyjIRv6X-80" value="电信线路" style="edgeLabel;html=1;align=center;verticalAlign=middle;resizable=0;points=[];" vertex="1" connectable="0" parent="29SdABc7wkxVLyjIRv6X-67">
          <mxGeometry x="0.2935" y="2" relative="1" as="geometry">
            <mxPoint y="5" as="offset" />
          </mxGeometry>
        </mxCell>
        <mxCell id="29SdABc7wkxVLyjIRv6X-68" value="" style="shape=flexArrow;endArrow=classic;html=1;rounded=0;fillColor=#d5e8d4;strokeColor=#82b366;" edge="1" parent="1">
          <mxGeometry width="50" height="50" relative="1" as="geometry">
            <mxPoint x="576" y="-754" as="sourcePoint" />
            <mxPoint x="575.5" y="-864.25" as="targetPoint" />
          </mxGeometry>
        </mxCell>
        <mxCell id="29SdABc7wkxVLyjIRv6X-81" value="移动" style="edgeLabel;html=1;align=center;verticalAlign=middle;resizable=0;points=[];" vertex="1" connectable="0" parent="29SdABc7wkxVLyjIRv6X-68">
          <mxGeometry x="0.2897" y="-2" relative="1" as="geometry">
            <mxPoint x="-1" y="22" as="offset" />
          </mxGeometry>
        </mxCell>
        <mxCell id="29SdABc7wkxVLyjIRv6X-70" value="" style="shape=flexArrow;endArrow=classic;html=1;rounded=0;fillColor=#d5e8d4;strokeColor=#82b366;" edge="1" parent="1">
          <mxGeometry width="50" height="50" relative="1" as="geometry">
            <mxPoint x="616" y="-754" as="sourcePoint" />
            <mxPoint x="615.5" y="-864.25" as="targetPoint" />
          </mxGeometry>
        </mxCell>
        <mxCell id="29SdABc7wkxVLyjIRv6X-82" value="联通线路" style="edgeLabel;html=1;align=center;verticalAlign=middle;resizable=0;points=[];" vertex="1" connectable="0" parent="29SdABc7wkxVLyjIRv6X-70">
          <mxGeometry x="0.2459" relative="1" as="geometry">
            <mxPoint x="3" y="2" as="offset" />
          </mxGeometry>
        </mxCell>
        <mxCell id="29SdABc7wkxVLyjIRv6X-71" value="" style="shape=flexArrow;endArrow=classic;html=1;rounded=0;fillColor=#d5e8d4;strokeColor=#82b366;" edge="1" parent="1">
          <mxGeometry width="50" height="50" relative="1" as="geometry">
            <mxPoint x="443" y="-754" as="sourcePoint" />
            <mxPoint x="443" y="-864.75" as="targetPoint" />
          </mxGeometry>
        </mxCell>
        <mxCell id="29SdABc7wkxVLyjIRv6X-79" value="联通线路" style="edgeLabel;html=1;align=center;verticalAlign=middle;resizable=0;points=[];" vertex="1" connectable="0" parent="29SdABc7wkxVLyjIRv6X-71">
          <mxGeometry x="0.2841" y="1" relative="1" as="geometry">
            <mxPoint x="2" y="5" as="offset" />
          </mxGeometry>
        </mxCell>
        <mxCell id="29SdABc7wkxVLyjIRv6X-91" value="" style="shape=flexArrow;endArrow=classic;html=1;rounded=0;" edge="1" parent="1">
          <mxGeometry width="50" height="50" relative="1" as="geometry">
            <mxPoint x="235" y="-911.25" as="sourcePoint" />
            <mxPoint x="312" y="-1044" as="targetPoint" />
          </mxGeometry>
        </mxCell>
        <mxCell id="29SdABc7wkxVLyjIRv6X-92" value="" style="shape=flexArrow;endArrow=classic;html=1;rounded=0;" edge="1" parent="1">
          <mxGeometry width="50" height="50" relative="1" as="geometry">
            <mxPoint x="404" y="-911.25" as="sourcePoint" />
            <mxPoint x="404" y="-1044" as="targetPoint" />
          </mxGeometry>
        </mxCell>
        <mxCell id="29SdABc7wkxVLyjIRv6X-93" value="" style="shape=flexArrow;endArrow=classic;html=1;rounded=0;" edge="1" parent="1">
          <mxGeometry width="50" height="50" relative="1" as="geometry">
            <mxPoint x="564" y="-910" as="sourcePoint" />
            <mxPoint x="482" y="-1044" as="targetPoint" />
          </mxGeometry>
        </mxCell>
        <mxCell id="29SdABc7wkxVLyjIRv6X-95" value="出口" style="text;html=1;strokeColor=none;fillColor=none;align=center;verticalAlign=middle;whiteSpace=wrap;rounded=0;fontColor=#FF1900;" vertex="1" parent="1">
          <mxGeometry x="222" y="-1016" width="60" height="30" as="geometry" />
        </mxCell>
        <mxCell id="29SdABc7wkxVLyjIRv6X-96" value="出口" style="text;html=1;strokeColor=none;fillColor=none;align=center;verticalAlign=middle;whiteSpace=wrap;rounded=0;fontColor=#FF1900;" vertex="1" parent="1">
          <mxGeometry x="365" y="-1016" width="60" height="30" as="geometry" />
        </mxCell>
        <mxCell id="29SdABc7wkxVLyjIRv6X-98" value="出口" style="text;html=1;strokeColor=none;fillColor=none;align=center;verticalAlign=middle;whiteSpace=wrap;rounded=0;fontColor=#FF1900;" vertex="1" parent="1">
          <mxGeometry x="512" y="-1016" width="60" height="30" as="geometry" />
        </mxCell>
        <mxCell id="29SdABc7wkxVLyjIRv6X-99" value="注；深信服的vSD-WAN部署在公有云上" style="text;html=1;strokeColor=none;fillColor=none;align=center;verticalAlign=middle;whiteSpace=wrap;rounded=0;fontColor=#141515;fontSize=14;" vertex="1" parent="1">
          <mxGeometry x="702" y="-906.75" width="158" height="36" as="geometry" />
        </mxCell>
        <mxCell id="29SdABc7wkxVLyjIRv6X-100" value="门店部署的SD-WAN盒子&lt;br&gt;多条VPN线路，VPN1挂了，切到VPN2使用" style="text;html=1;strokeColor=none;fillColor=none;align=center;verticalAlign=middle;whiteSpace=wrap;rounded=0;fontColor=#151414;fontSize=14;" vertex="1" parent="1">
          <mxGeometry x="702" y="-751" width="158" height="36" as="geometry" />
        </mxCell>
        <mxCell id="29SdABc7wkxVLyjIRv6X-101" value="运营线多链路，多电信挂了自动切移动，&lt;br&gt;或者选择最佳运营商链路" style="text;html=1;strokeColor=none;fillColor=none;align=center;verticalAlign=middle;whiteSpace=wrap;rounded=0;fontColor=#1b1918;fontSize=14;" vertex="1" parent="1">
          <mxGeometry x="701" y="-842" width="179" height="36" as="geometry" />
        </mxCell>
        <mxCell id="29SdABc7wkxVLyjIRv6X-112" style="edgeStyle=orthogonalEdgeStyle;rounded=0;orthogonalLoop=1;jettySize=auto;html=1;exitX=0.5;exitY=0;exitDx=0;exitDy=0;" edge="1" parent="1" source="29SdABc7wkxVLyjIRv6X-104" target="29SdABc7wkxVLyjIRv6X-62">
          <mxGeometry relative="1" as="geometry" />
        </mxCell>
        <mxCell id="29SdABc7wkxVLyjIRv6X-104" value="门店PC" style="rounded=0;whiteSpace=wrap;html=1;fillColor=#ffe6cc;strokeColor=#d79b00;" vertex="1" parent="1">
          <mxGeometry x="342" y="-655" width="50" height="90" as="geometry" />
        </mxCell>
        <mxCell id="29SdABc7wkxVLyjIRv6X-113" style="edgeStyle=orthogonalEdgeStyle;rounded=0;orthogonalLoop=1;jettySize=auto;html=1;exitX=0.5;exitY=0;exitDx=0;exitDy=0;" edge="1" parent="1" source="29SdABc7wkxVLyjIRv6X-105">
          <mxGeometry relative="1" as="geometry">
            <mxPoint x="412" y="-706" as="targetPoint" />
          </mxGeometry>
        </mxCell>
        <mxCell id="29SdABc7wkxVLyjIRv6X-105" value="门店PC" style="rounded=0;whiteSpace=wrap;html=1;fillColor=#ffe6cc;strokeColor=#d79b00;" vertex="1" parent="1">
          <mxGeometry x="422" y="-655" width="50" height="90" as="geometry" />
        </mxCell>
        <mxCell id="29SdABc7wkxVLyjIRv6X-110" style="edgeStyle=orthogonalEdgeStyle;rounded=0;orthogonalLoop=1;jettySize=auto;html=1;exitX=0.5;exitY=0;exitDx=0;exitDy=0;" edge="1" parent="1" source="29SdABc7wkxVLyjIRv6X-106" target="29SdABc7wkxVLyjIRv6X-59">
          <mxGeometry relative="1" as="geometry" />
        </mxCell>
        <mxCell id="29SdABc7wkxVLyjIRv6X-106" value="门店PC" style="rounded=0;whiteSpace=wrap;html=1;fillColor=#ffe6cc;strokeColor=#d79b00;" vertex="1" parent="1">
          <mxGeometry x="162" y="-655" width="50" height="90" as="geometry" />
        </mxCell>
        <mxCell id="29SdABc7wkxVLyjIRv6X-111" style="edgeStyle=orthogonalEdgeStyle;rounded=0;orthogonalLoop=1;jettySize=auto;html=1;exitX=0.5;exitY=0;exitDx=0;exitDy=0;" edge="1" parent="1" source="29SdABc7wkxVLyjIRv6X-107">
          <mxGeometry relative="1" as="geometry">
            <mxPoint x="232" y="-706" as="targetPoint" />
          </mxGeometry>
        </mxCell>
        <mxCell id="29SdABc7wkxVLyjIRv6X-107" value="门店PC" style="rounded=0;whiteSpace=wrap;html=1;fillColor=#ffe6cc;strokeColor=#d79b00;" vertex="1" parent="1">
          <mxGeometry x="242" y="-655" width="50" height="90" as="geometry" />
        </mxCell>
        <mxCell id="29SdABc7wkxVLyjIRv6X-114" style="edgeStyle=orthogonalEdgeStyle;rounded=0;orthogonalLoop=1;jettySize=auto;html=1;exitX=0.5;exitY=0;exitDx=0;exitDy=0;entryX=0.5;entryY=1;entryDx=0;entryDy=0;" edge="1" parent="1" source="29SdABc7wkxVLyjIRv6X-108" target="29SdABc7wkxVLyjIRv6X-63">
          <mxGeometry relative="1" as="geometry" />
        </mxCell>
        <mxCell id="29SdABc7wkxVLyjIRv6X-108" value="门店PC" style="rounded=0;whiteSpace=wrap;html=1;fillColor=#ffe6cc;strokeColor=#d79b00;" vertex="1" parent="1">
          <mxGeometry x="519.5" y="-655" width="50" height="90" as="geometry" />
        </mxCell>
        <mxCell id="29SdABc7wkxVLyjIRv6X-115" style="edgeStyle=orthogonalEdgeStyle;rounded=0;orthogonalLoop=1;jettySize=auto;html=1;exitX=0.5;exitY=0;exitDx=0;exitDy=0;" edge="1" parent="1" source="29SdABc7wkxVLyjIRv6X-109">
          <mxGeometry relative="1" as="geometry">
            <mxPoint x="582" y="-706" as="targetPoint" />
          </mxGeometry>
        </mxCell>
        <mxCell id="29SdABc7wkxVLyjIRv6X-109" value="门店PC" style="rounded=0;whiteSpace=wrap;html=1;fillColor=#ffe6cc;strokeColor=#d79b00;" vertex="1" parent="1">
          <mxGeometry x="599.5" y="-655" width="50" height="90" as="geometry" />
        </mxCell>
        <mxCell id="29SdABc7wkxVLyjIRv6X-116" value="" style="shape=flexArrow;endArrow=classic;html=1;rounded=0;fillColor=#d5e8d4;strokeColor=#82b366;" edge="1" parent="1">
          <mxGeometry width="50" height="50" relative="1" as="geometry">
            <mxPoint x="267" y="-754" as="sourcePoint" />
            <mxPoint x="266.5" y="-866.5" as="targetPoint" />
          </mxGeometry>
        </mxCell>
        <mxCell id="29SdABc7wkxVLyjIRv6X-117" value="联通线路" style="edgeLabel;html=1;align=center;verticalAlign=middle;resizable=0;points=[];" vertex="1" connectable="0" parent="29SdABc7wkxVLyjIRv6X-116">
          <mxGeometry x="0.2841" y="1" relative="1" as="geometry">
            <mxPoint x="4" y="7" as="offset" />
          </mxGeometry>
        </mxCell>
      </root>
    </mxGraphModel>
  </diagram>
</mxfile>
